<svg width="48" height="48" viewBox="0 0 48 48" fill="none" xmlns="http://www.w3.org/2000/svg">
<g clip-path="url(#clip0_1_402)">
<path d="M45 42H3C2.20435 42 1.44129 41.6839 0.87868 41.1213C0.31607 40.5587 0 39.7957 0 39L0 9C0 8.20435 0.31607 7.44129 0.87868 6.87868C1.44129 6.31607 2.20435 6 3 6H45C45.7957 6 46.5587 6.31607 47.1213 6.87868C47.6839 7.44129 48 8.20435 48 9V39C48 39.7957 47.6839 40.5587 47.1213 41.1213C46.5587 41.6839 45.7957 42 45 42Z" fill="#EAEAEA"/>
<path d="M6 42H3C2.20435 42 1.44129 41.6839 0.87868 41.1213C0.31607 40.5587 0 39.7957 0 39L0 9C0 8.20435 0.31607 7.44129 0.87868 6.87868C1.44129 6.31607 2.20435 6 3 6C3.79565 6 4.55871 6.31607 5.12132 6.87868C5.68393 7.44129 6 8.20435 6 9V42Z" fill="#D54C3F"/>
<path d="M42 42H45C45.7956 42 46.5587 41.6839 47.1213 41.1213C47.6839 40.5587 48 39.7957 48 39V9C48 8.20435 47.6839 7.44129 47.1213 6.87868C46.5587 6.31607 45.7956 6 45 6C44.2044 6 43.4413 6.31607 42.8787 6.87868C42.3161 7.44129 42 8.20435 42 9V42Z" fill="#B63524"/>
<path d="M46.718 11.46C47.3704 11.0044 47.8151 10.3082 47.9543 9.52472C48.0935 8.74119 47.9156 7.93448 47.46 7.28205C47.2344 6.95899 46.9474 6.68354 46.6153 6.47142C46.2832 6.2593 45.9126 6.11465 45.5247 6.04575C44.7412 5.9066 43.9344 6.0844 43.282 6.54005L24.002 20.576H23.998L4.71801 6.54005C4.06493 6.11381 3.27162 5.95845 2.506 6.10686C1.74039 6.25526 1.06258 6.69578 0.616055 7.33515C0.169531 7.97453 -0.0106544 8.76258 0.113643 9.53247C0.237941 10.3024 0.656964 10.9937 1.28201 11.46L1.20201 11.402L24 28L46.718 11.46ZM46.798 11.402L24 28L46.798 11.402Z" fill="#DE5145"/>
<path d="M45 6C44.362 6 43.768 6.2 43.282 6.54L24.002 20.576H23.998L4.718 6.54C4.21438 6.18784 3.61453 5.9993 3 6H45Z" fill="#EFEFEF"/>
<path d="M6.002 16.1881L0.946 11.1801L0.944 11.1841C1.05 11.2841 1.162 11.3761 1.282 11.4601L1.202 11.4021L6.002 14.8961V16.2241V16.1881Z" fill="#C64132"/>
<path d="M20.668 30.592L6 42L6.002 16.064L20.666 30.588L20.668 30.592Z" fill="#E3E3E3"/>
<path d="M20.668 30.592L24 28L6.00201 14.896V16.062L20.666 30.586L20.668 30.592Z" fill="url(#paint0_linear_1_402)"/>
<path d="M32.06 42H42V14.896L24 28L20.666 30.586L32.06 42Z" fill="url(#paint1_linear_1_402)"/>
</g>
<defs>
<linearGradient id="paint0_linear_1_402" x1="6.0151" y1="22.8594" x2="24.0049" y2="22.8594" gradientUnits="userSpaceOnUse">
<stop stop-color="#C8C8C8"/>
<stop offset="1" stop-color="#CDCDCD"/>
</linearGradient>
<linearGradient id="paint1_linear_1_402" x1="20.7131" y1="28.5243" x2="41.9946" y2="28.5243" gradientUnits="userSpaceOnUse">
<stop stop-color="#D9D9D9"/>
<stop offset="1" stop-color="#E2E2E2"/>
</linearGradient>
<clipPath id="clip0_1_402">
<rect width="48" height="48" fill="white"/>
</clipPath>
</defs>
</svg>
