<svg width="48" height="48" viewBox="0 0 48 48" fill="none" xmlns="http://www.w3.org/2000/svg">
<path d="M45.3333 0H2.66667C1.19391 0 0 1.19391 0 2.66667V45.3333C0 46.8061 1.19391 48 2.66667 48H45.3333C46.8061 48 48 46.8061 48 45.3333V2.66667C48 1.19391 46.8061 0 45.3333 0Z" fill="#117EB8"/>
<path fill-rule="evenodd" clip-rule="evenodd" d="M8.75931 18.5653H15.1746V39.2066H8.75931V18.5653ZM11.968 8.30462C14.0193 8.30462 15.686 9.97129 15.686 12.0226C15.686 14.076 14.0193 15.7433 11.968 15.7433C11.4736 15.7526 10.9824 15.6634 10.5229 15.4807C10.0635 15.2979 9.64505 15.0255 9.29213 14.6792C8.93921 14.3329 8.65887 13.9197 8.4675 13.4638C8.27612 13.0079 8.17755 12.5184 8.17755 12.024C8.17755 11.5295 8.27612 11.04 8.4675 10.5841C8.65887 10.1282 8.93921 9.71504 9.29213 9.36874C9.64505 9.02244 10.0635 8.74997 10.5229 8.56726C10.9824 8.38455 11.4736 8.29526 11.968 8.30462ZM19.1986 18.5646H25.352V21.3853H25.4373C26.294 19.7626 28.3866 18.052 31.5073 18.052C38.0033 18.052 39.2033 22.3273 39.2033 27.8853V39.2066H32.792V29.1686C32.792 26.7753 32.748 23.696 29.4586 23.696C26.1206 23.696 25.608 26.3033 25.608 28.996V39.2066H19.198V18.5653L19.1986 18.5646Z" fill="white"/>
</svg>
