<svg width="48" height="48" viewBox="0 0 48 48" fill="none" xmlns="http://www.w3.org/2000/svg">
<path d="M48 5.68201C46.1944 6.65125 44.2848 7.29541 42.33 7.59464C44.39 6.09048 45.9303 3.70869 46.659 0.900439C44.73 2.30846 42.6196 3.3 40.419 3.83215C39.0697 2.05902 37.3184 0.826293 35.3925 0.294137C33.4666 -0.238018 31.4551 -0.045006 29.6195 0.848097C27.7839 1.7412 26.209 3.29311 25.0993 5.3022C23.9896 7.31129 23.3965 9.68469 23.397 12.114C23.397 13.0741 23.463 13.9971 23.625 14.8759C19.7102 14.6397 15.8801 13.3892 12.3849 11.2062C8.88974 9.02315 5.80828 5.95678 3.342 2.20752C2.07846 4.87286 1.68783 8.03073 2.24965 11.0381C2.81147 14.0455 4.2835 16.6763 6.366 18.3947C4.80827 18.3433 3.28342 17.8317 1.92 16.903V17.0359C1.92261 19.8326 2.708 22.5428 4.14395 24.7103C5.57991 26.8778 7.57875 28.3702 9.804 28.9363C8.96216 29.2094 8.09456 29.3435 7.224 29.3351C6.59877 29.3488 5.97416 29.2794 5.361 29.1283C5.99682 31.5321 7.22247 33.6342 8.86918 35.1452C10.5159 36.6561 12.5027 37.5016 14.556 37.5653C11.0728 40.9181 6.77692 42.7368 2.355 42.7309C1.548 42.7309 0.774 42.6866 0 42.5647C4.49965 46.1335 9.74303 48.0213 15.096 47.9998C33.204 47.9998 43.104 29.5382 43.104 13.5356C43.104 13.0002 43.089 12.4833 43.068 11.97C45.0089 10.2604 46.6802 8.12958 48 5.68201Z" fill="#03A9F4"/>
</svg>
