<svg width="48" height="49" viewBox="0 0 48 49" fill="none" xmlns="http://www.w3.org/2000/svg">
<path d="M41.0064 7.00667C36.4938 2.49098 30.4934 0.00275512 24.1004 0C10.9267 0 0.205926 10.7173 0.200652 23.8905C0.199117 28.1013 1.29935 32.2117 3.39061 35.835L0 48.2153L12.6695 44.8931C16.1602 46.7968 20.0905 47.8 24.0902 47.8016H24.1003H24.1004C37.272 47.8016 47.9944 37.0824 48 23.9098C48.0022 17.5255 45.5183 11.5227 41.0064 7.00667ZM24.1004 43.7664H24.0927C20.5276 43.7645 17.0316 42.8074 13.9822 40.9979L13.2565 40.5677L5.73817 42.539L7.74547 35.2113L7.27265 34.46C5.28405 31.2981 4.23423 27.6441 4.23572 23.892C4.24009 12.9429 13.1508 4.03535 24.1079 4.03535C29.414 4.03755 34.401 6.10578 38.1517 9.85909C41.9022 13.6123 43.9661 18.6018 43.9646 23.9082C43.9599 34.8576 35.0489 43.7664 24.1004 43.7664Z" fill="#E0E0E0"/>
<path d="M1.09724 46.8414L4.33298 35.0266C2.33673 31.5689 1.28695 27.6459 1.28821 23.6282C1.29345 11.0571 11.5246 0.82959 24.0955 0.82959C30.1967 0.832345 35.9231 3.20679 40.2286 7.51631C44.535 11.8258 46.9052 17.554 46.9027 23.646C46.8974 36.2175 36.6657 46.4459 24.0964 46.4459C24.0955 46.4459 24.097 46.4459 24.0964 46.4459H24.0862C20.2693 46.4447 16.5188 45.4865 13.1878 43.6711L1.09724 46.8414Z" fill="url(#paint0_linear_1_418)"/>
<path fill-rule="evenodd" clip-rule="evenodd" d="M18.1945 13.7478C17.7524 12.7647 17.2868 12.7451 16.8662 12.7279C16.5221 12.7131 16.1282 12.714 15.7349 12.714C15.3413 12.714 14.7017 12.8619 14.1609 13.4526C13.6197 14.0433 12.0945 15.4713 12.0945 18.3755C12.0945 21.2801 14.2101 24.0866 14.5049 24.4808C14.8001 24.8744 18.5887 31.0248 24.5888 33.391C29.5754 35.3574 30.5901 34.9662 31.6725 34.8678C32.7549 34.7694 35.165 33.4401 35.657 32.0616C36.1489 30.6835 36.1489 29.5021 36.0013 29.2552C35.8538 29.0092 35.4602 28.8616 34.8698 28.5664C34.2794 28.2712 31.3773 26.8429 30.8361 26.6461C30.2949 26.4493 29.9014 26.3509 29.5078 26.9419C29.1142 27.5323 27.9835 28.8616 27.6391 29.2552C27.2947 29.6497 26.9503 29.6988 26.36 29.4037C25.7696 29.1076 23.8683 28.4849 21.6129 26.4739C19.8581 24.9093 18.6733 22.9771 18.3289 22.3861C17.9845 21.7957 18.292 21.4759 18.5881 21.1816C18.8532 20.9172 19.1785 20.4925 19.4737 20.1478C19.7683 19.8031 19.8666 19.5571 20.0634 19.1635C20.2602 18.7693 20.1618 18.4247 20.0142 18.1295C19.8666 17.8343 18.7194 14.915 18.1945 13.7478Z" fill="white"/>
<path d="M40.811 6.93065C36.3503 2.4668 30.4188 0.00718901 24.0992 0.00439453C11.0767 0.00439453 0.47897 10.5987 0.473735 23.6206C0.4722 27.7832 1.5598 31.8464 3.62705 35.428L0.275406 47.6661L12.7995 44.3821C16.2502 46.2639 20.1353 47.2556 24.0891 47.2572H24.0991H24.0992C37.1196 47.2572 47.7188 36.661 47.7244 23.6397C47.7266 17.3288 45.2712 11.3948 40.811 6.93065ZM24.0992 43.2684H24.0915C20.5674 43.2666 17.1115 42.3204 14.0971 40.5318L13.3797 40.1065L5.94769 42.0551L7.93193 34.8115L7.46454 34.0689C5.49876 30.9433 4.46099 27.3311 4.46252 23.6222C4.46681 12.7988 13.2752 3.9935 24.1066 3.9935C29.3518 3.99566 34.2815 6.04016 37.9892 9.75036C41.6967 13.4606 43.7369 18.3927 43.7353 23.6382C43.7307 34.4619 34.922 43.2684 24.0992 43.2684Z" fill="white"/>
<defs>
<linearGradient id="paint0_linear_1_418" x1="24" y1="46.8414" x2="24" y2="0.829667" gradientUnits="userSpaceOnUse">
<stop stop-color="#20B038"/>
<stop offset="1" stop-color="#60D66A"/>
</linearGradient>
</defs>
</svg>
