<svg width="3985" height="1316" viewBox="0 0 3985 1316" fill="none" xmlns="http://www.w3.org/2000/svg">
<path fill-rule="evenodd" clip-rule="evenodd" d="M729.631 186.654L417.445 -4.88162e-05L416.128 86.2512C174.703 163.893 0 390.32 0 657.552C0 988.923 268.629 1257.55 600 1257.55C931.371 1257.55 1200 988.923 1200 657.552C1200 421.344 1063.51 217.016 865.088 119.139L859.077 158.31L834.663 317.412C946.475 392.875 1020 520.747 1020 665.792C1020 897.752 831.96 1085.79 600 1085.79C368.04 1085.79 180 897.752 180 665.792C180 501.009 274.897 358.39 413.023 289.604L411.891 363.688L729.631 186.654Z" fill="#662D91"/>
<path fill-rule="evenodd" clip-rule="evenodd" d="M232.188 866.878H231.108L88.0266 968.902C193.314 1141.85 383.618 1257.34 600.897 1257.34C823.123 1257.34 1017.13 1136.53 1120.83 957L971.988 866.878L969.605 866.878C898.305 997.2 759.922 1085.58 600.897 1085.58C441.872 1085.58 303.489 997.2 232.188 866.878Z" fill="#FF914D"/>
<g filter="url(#filter0_d_5752_8066)">
<path d="M713.7 864C709.033 864 706 861.667 704.6 857L645.1 656.1C644.167 654.233 643 653.3 641.6 653.3H604.5C602.167 653.3 601 654.467 601 656.8V855.6C601 857.933 600.067 860.033 598.2 861.9C596.8 863.3 594.933 864 592.6 864H528.2C525.867 864 523.767 863.3 521.9 861.9C520.5 860.033 519.8 857.933 519.8 855.6V382.4C519.8 380.067 520.5 378.2 521.9 376.8C523.767 374.933 525.867 374 528.2 374H659.8C684.533 374 706.233 380.067 724.9 392.2C744.033 403.867 758.733 420.667 769 442.6C779.733 464.067 785.1 488.8 785.1 516.8C785.1 545.733 779.5 570.7 768.3 591.7C757.1 612.7 741.467 628.567 721.4 639.3C719.533 639.767 718.833 641.167 719.3 643.5L787.9 854.2C788.367 855.133 788.6 856.3 788.6 857.7C788.6 861.9 786.033 864 780.9 864H713.7ZM604.5 444C602.167 444 601 445.167 601 447.5V586.8C601 589.133 602.167 590.3 604.5 590.3H647.2C664 590.3 677.533 583.767 687.8 570.7C698.533 557.633 703.9 539.9 703.9 517.5C703.9 495.1 698.533 477.367 687.8 464.3C677.533 450.767 664 444 647.2 444H604.5ZM1226.76 435.6C1226.76 437.933 1225.82 440.033 1223.96 441.9C1222.56 443.3 1220.69 444 1218.36 444H1067.16C1064.82 444 1063.66 445.167 1063.66 447.5V579.8C1063.66 582.133 1064.82 583.3 1067.16 583.3H1156.76C1159.09 583.3 1160.96 584.233 1162.36 586.1C1164.22 587.5 1165.16 589.367 1165.16 591.7V645.6C1165.16 647.933 1164.22 650.033 1162.36 651.9C1160.96 653.3 1159.09 654 1156.76 654H1067.16C1064.82 654 1063.66 655.167 1063.66 657.5V790.5C1063.66 792.833 1064.82 794 1067.16 794H1218.36C1220.69 794 1222.56 794.933 1223.96 796.8C1225.82 798.2 1226.76 800.067 1226.76 802.4V855.6C1226.76 857.933 1225.82 860.033 1223.96 861.9C1222.56 863.3 1220.69 864 1218.36 864H990.856C988.523 864 986.423 863.3 984.556 861.9C983.156 860.033 982.456 857.933 982.456 855.6V382.4C982.456 380.067 983.156 378.2 984.556 376.8C986.423 374.933 988.523 374 990.856 374H1218.36C1220.69 374 1222.56 374.933 1223.96 376.8C1225.82 378.2 1226.76 380.067 1226.76 382.4V435.6ZM1670.26 435.6C1670.26 437.933 1669.32 440.033 1667.46 441.9C1666.06 443.3 1664.19 444 1661.86 444H1511.36C1509.02 444 1507.86 445.167 1507.86 447.5V579.8C1507.86 582.133 1509.02 583.3 1511.36 583.3H1600.26C1602.59 583.3 1604.46 584.233 1605.86 586.1C1607.72 587.5 1608.66 589.367 1608.66 591.7V645.6C1608.66 647.933 1607.72 650.033 1605.86 651.9C1604.46 653.3 1602.59 654 1600.26 654H1511.36C1509.02 654 1507.86 655.167 1507.86 657.5V855.6C1507.86 857.933 1506.92 860.033 1505.06 861.9C1503.66 863.3 1501.79 864 1499.46 864H1435.06C1432.72 864 1430.62 863.3 1428.76 861.9C1427.36 860.033 1426.66 857.933 1426.66 855.6V382.4C1426.66 380.067 1427.36 378.2 1428.76 376.8C1430.62 374.933 1432.72 374 1435.06 374H1661.86C1664.19 374 1666.06 374.933 1667.46 376.8C1669.32 378.2 1670.26 380.067 1670.26 382.4V435.6ZM2030.69 864C2025.09 864 2022.06 861.433 2021.59 856.3L2008.29 782.8C2008.29 780.467 2006.89 779.3 2004.09 779.3H1901.89C1899.09 779.3 1897.69 780.467 1897.69 782.8L1884.39 856.3C1883.92 861.433 1880.89 864 1875.29 864H1811.59C1805.06 864 1802.49 860.967 1803.89 854.9L1907.49 381.7C1908.42 376.567 1911.46 374 1916.59 374H1990.79C1995.92 374 1998.96 376.567 1999.89 381.7L2103.49 854.9V857.7C2103.49 861.9 2100.92 864 2095.79 864H2030.69ZM1910.29 712.1C1909.82 714.433 1910.99 715.6 1913.79 715.6H1991.49C1994.29 715.6 1995.46 714.433 1994.99 712.1L1954.39 490.9C1953.92 489.5 1953.22 488.8 1952.29 488.8C1951.36 488.8 1950.66 489.5 1950.19 490.9L1910.29 712.1ZM2403.39 869.6C2363.72 869.6 2331.76 857.7 2307.49 833.9C2283.69 809.633 2271.79 777.667 2271.79 738V499.3C2271.79 459.167 2283.69 427.433 2307.49 404.1C2331.76 380.3 2363.72 368.4 2403.39 368.4C2443.52 368.4 2475.72 380.3 2499.99 404.1C2524.26 427.433 2536.39 459.167 2536.39 499.3V507.7C2536.39 510.033 2535.46 512.133 2533.59 514C2532.19 515.867 2530.32 516.8 2527.99 516.8L2462.89 519.6C2457.29 519.6 2454.49 516.8 2454.49 511.2V493.7C2454.49 477.367 2449.82 464.067 2440.49 453.8C2431.16 443.533 2418.79 438.4 2403.39 438.4C2388.46 438.4 2376.32 443.533 2366.99 453.8C2357.66 464.067 2352.99 477.367 2352.99 493.7V744.3C2352.99 760.633 2357.66 773.933 2366.99 784.2C2376.32 794.467 2388.46 799.6 2403.39 799.6C2418.79 799.6 2431.16 794.467 2440.49 784.2C2449.82 773.933 2454.49 760.633 2454.49 744.3V726.8C2454.49 724.467 2455.19 722.6 2456.59 721.2C2458.46 719.333 2460.56 718.4 2462.89 718.4L2527.99 721.2C2530.32 721.2 2532.19 722.133 2533.59 724C2535.46 725.4 2536.39 727.267 2536.39 729.6V738C2536.39 777.667 2524.26 809.633 2499.99 833.9C2475.72 857.7 2443.52 869.6 2403.39 869.6ZM2991.41 374C2993.75 374 2995.61 374.933 2997.01 376.8C2998.88 378.2 2999.81 380.067 2999.81 382.4V435.6C2999.81 437.933 2998.88 440.033 2997.01 441.9C2995.61 443.3 2993.75 444 2991.41 444H2902.51C2900.18 444 2899.01 445.167 2899.01 447.5V855.6C2899.01 857.933 2898.08 860.033 2896.21 861.9C2894.81 863.3 2892.95 864 2890.61 864H2826.21C2823.88 864 2821.78 863.3 2819.91 861.9C2818.51 860.033 2817.81 857.933 2817.81 855.6V447.5C2817.81 445.167 2816.65 444 2814.31 444H2730.31C2727.98 444 2725.88 443.3 2724.01 441.9C2722.61 440.033 2721.91 437.933 2721.91 435.6V382.4C2721.91 380.067 2722.61 378.2 2724.01 376.8C2725.88 374.933 2727.98 374 2730.31 374H2991.41ZM3304.83 869.6C3264.69 869.6 3232.26 857.467 3207.53 833.2C3183.26 808.933 3171.13 776.733 3171.13 736.6V501.4C3171.13 461.267 3183.26 429.067 3207.53 404.8C3232.26 380.533 3264.69 368.4 3304.83 368.4C3344.96 368.4 3377.39 380.533 3402.13 404.8C3426.86 429.067 3439.23 461.267 3439.23 501.4V736.6C3439.23 776.733 3426.86 808.933 3402.13 833.2C3377.39 857.467 3344.96 869.6 3304.83 869.6ZM3304.83 799.6C3320.69 799.6 3333.53 794.233 3343.33 783.5C3353.13 772.3 3358.03 757.833 3358.03 740.1V497.9C3358.03 480.167 3353.13 465.933 3343.33 455.2C3333.53 444 3320.69 438.4 3304.83 438.4C3288.96 438.4 3276.13 444 3266.33 455.2C3256.99 465.933 3252.33 480.167 3252.33 497.9V740.1C3252.33 757.833 3256.99 772.3 3266.33 783.5C3276.13 794.233 3288.96 799.6 3304.83 799.6ZM3840.18 864C3835.52 864 3832.48 861.667 3831.08 857L3771.58 656.1C3770.65 654.233 3769.48 653.3 3768.08 653.3H3730.98C3728.65 653.3 3727.48 654.467 3727.48 656.8V855.6C3727.48 857.933 3726.55 860.033 3724.68 861.9C3723.28 863.3 3721.42 864 3719.08 864H3654.68C3652.35 864 3650.25 863.3 3648.38 861.9C3646.98 860.033 3646.28 857.933 3646.28 855.6V382.4C3646.28 380.067 3646.98 378.2 3648.38 376.8C3650.25 374.933 3652.35 374 3654.68 374H3786.28C3811.02 374 3832.72 380.067 3851.38 392.2C3870.52 403.867 3885.22 420.667 3895.48 442.6C3906.22 464.067 3911.58 488.8 3911.58 516.8C3911.58 545.733 3905.98 570.7 3894.78 591.7C3883.58 612.7 3867.95 628.567 3847.88 639.3C3846.02 639.767 3845.32 641.167 3845.78 643.5L3914.38 854.2C3914.85 855.133 3915.08 856.3 3915.08 857.7C3915.08 861.9 3912.52 864 3907.38 864H3840.18ZM3730.98 444C3728.65 444 3727.48 445.167 3727.48 447.5V586.8C3727.48 589.133 3728.65 590.3 3730.98 590.3H3773.68C3790.48 590.3 3804.02 583.767 3814.28 570.7C3825.02 557.633 3830.38 539.9 3830.38 517.5C3830.38 495.1 3825.02 477.367 3814.28 464.3C3804.02 450.767 3790.48 444 3773.68 444H3730.98Z" fill="#CEFBFD"/>
</g>
<path d="M2695.4 1267C2693 1267 2691.53 1265.8 2691 1263.4L2682.2 1217.4C2682.2 1216.87 2681.93 1216.47 2681.4 1216.2C2681.13 1215.93 2680.73 1215.8 2680.2 1215.8H2615C2614.47 1215.8 2613.93 1215.93 2613.4 1216.2C2613.13 1216.47 2613 1216.87 2613 1217.4L2604.6 1263.4C2604.33 1265.8 2602.87 1267 2600.2 1267H2569.8C2568.47 1267 2567.4 1266.6 2566.6 1265.8C2566.07 1265 2565.93 1263.93 2566.2 1262.6L2625.8 990.6C2626.33 988.2 2627.8 987 2630.2 987H2665.8C2668.47 987 2669.93 988.2 2670.2 990.6L2730.2 1262.6V1263.4C2730.2 1265.8 2729 1267 2726.6 1267H2695.4ZM2619.8 1183.8C2619.8 1184.87 2620.2 1185.4 2621 1185.4H2674.2C2675 1185.4 2675.4 1184.87 2675.4 1183.8L2648.2 1041.8C2647.93 1041.27 2647.67 1041 2647.4 1041C2647.13 1041 2646.87 1041.27 2646.6 1041.8L2619.8 1183.8ZM2841.34 1270.2C2819.74 1270.2 2802.27 1263.67 2788.94 1250.6C2775.87 1237.27 2769.34 1219.67 2769.34 1197.8V1055.8C2769.34 1033.93 2775.87 1016.47 2788.94 1003.4C2802.27 990.333 2819.74 983.8 2841.34 983.8C2863.21 983.8 2880.67 990.333 2893.74 1003.4C2907.07 1016.47 2913.74 1033.93 2913.74 1055.8V1062.2C2913.74 1064.87 2912.41 1066.2 2909.74 1066.2L2879.34 1067.8C2876.67 1067.8 2875.34 1066.47 2875.34 1063.8V1053.4C2875.34 1042.47 2872.14 1033.67 2865.74 1027C2859.61 1020.33 2851.47 1017 2841.34 1017C2831.21 1017 2823.07 1020.33 2816.94 1027C2810.81 1033.67 2807.74 1042.47 2807.74 1053.4V1200.6C2807.74 1211.53 2810.81 1220.33 2816.94 1227C2823.07 1233.67 2831.21 1237 2841.34 1237C2851.47 1237 2859.61 1233.67 2865.74 1227C2872.14 1220.33 2875.34 1211.53 2875.34 1200.6V1190.2C2875.34 1187.53 2876.67 1186.2 2879.34 1186.2L2909.74 1187.8C2912.41 1187.8 2913.74 1189.13 2913.74 1191.8V1197.8C2913.74 1219.67 2907.07 1237.27 2893.74 1250.6C2880.67 1263.67 2863.21 1270.2 2841.34 1270.2ZM3083.06 1267C3080.66 1267 3079.19 1265.8 3078.66 1263.4L3069.86 1217.4C3069.86 1216.87 3069.59 1216.47 3069.06 1216.2C3068.79 1215.93 3068.39 1215.8 3067.86 1215.8H3002.66C3002.12 1215.8 3001.59 1215.93 3001.06 1216.2C3000.79 1216.47 3000.66 1216.87 3000.66 1217.4L2992.26 1263.4C2991.99 1265.8 2990.52 1267 2987.86 1267H2957.46C2956.12 1267 2955.06 1266.6 2954.26 1265.8C2953.72 1265 2953.59 1263.93 2953.86 1262.6L3013.46 990.6C3013.99 988.2 3015.46 987 3017.86 987H3053.46C3056.12 987 3057.59 988.2 3057.86 990.6L3117.86 1262.6V1263.4C3117.86 1265.8 3116.66 1267 3114.26 1267H3083.06ZM3007.46 1183.8C3007.46 1184.87 3007.86 1185.4 3008.66 1185.4H3061.86C3062.66 1185.4 3063.06 1184.87 3063.06 1183.8L3035.86 1041.8C3035.59 1041.27 3035.32 1041 3035.06 1041C3034.79 1041 3034.52 1041.27 3034.26 1041.8L3007.46 1183.8ZM3171.68 1267C3169.01 1267 3167.68 1265.67 3167.68 1263V991C3167.68 988.333 3169.01 987 3171.68 987H3237.28C3259.41 987 3277.01 993.8 3290.08 1007.4C3303.14 1021 3309.68 1039.4 3309.68 1062.6V1191.4C3309.68 1214.6 3303.14 1233 3290.08 1246.6C3277.01 1260.2 3259.41 1267 3237.28 1267H3171.68ZM3206.08 1232.2C3206.08 1233.27 3206.61 1233.8 3207.68 1233.8L3236.88 1233.4C3247.01 1233.4 3255.14 1229.53 3261.28 1221.8C3267.41 1213.8 3270.61 1203 3270.88 1189.4V1064.6C3270.88 1051 3267.81 1040.2 3261.68 1032.2C3255.54 1024.2 3247.28 1020.2 3236.88 1020.2H3207.68C3206.61 1020.2 3206.08 1020.73 3206.08 1021.8V1232.2ZM3506.83 1016.2C3506.83 1018.87 3505.5 1020.2 3502.83 1020.2H3412.83C3411.76 1020.2 3411.23 1020.73 3411.23 1021.8V1108.6C3411.23 1109.67 3411.76 1110.2 3412.83 1110.2H3468.03C3470.7 1110.2 3472.03 1111.53 3472.03 1114.2V1139.4C3472.03 1142.07 3470.7 1143.4 3468.03 1143.4H3412.83C3411.76 1143.4 3411.23 1143.93 3411.23 1145V1232.2C3411.23 1233.27 3411.76 1233.8 3412.83 1233.8H3502.83C3505.5 1233.8 3506.83 1235.13 3506.83 1237.8V1263C3506.83 1265.67 3505.5 1267 3502.83 1267H3376.83C3374.16 1267 3372.83 1265.67 3372.83 1263V991C3372.83 988.333 3374.16 987 3376.83 987H3502.83C3505.5 987 3506.83 988.333 3506.83 991V1016.2ZM3689.89 989.8C3690.95 987.933 3692.55 987 3694.69 987H3725.09C3727.75 987 3729.09 988.333 3729.09 991V1263C3729.09 1265.67 3727.75 1267 3725.09 1267H3694.69C3692.02 1267 3690.69 1265.67 3690.69 1263V1064.6C3690.69 1063.8 3690.42 1063.4 3689.89 1063.4C3689.62 1063.4 3689.22 1063.67 3688.69 1064.2L3650.29 1135.8C3649.49 1137.67 3648.29 1138.6 3646.69 1138.6C3645.09 1138.6 3643.89 1137.67 3643.09 1135.8L3605.09 1064.6C3604.55 1064.07 3604.02 1063.8 3603.49 1063.8C3603.22 1063.8 3603.09 1064.2 3603.09 1065V1263C3603.09 1265.67 3601.75 1267 3599.09 1267H3568.69C3566.02 1267 3564.69 1265.67 3564.69 1263V991C3564.69 988.333 3566.02 987 3568.69 987H3599.09C3600.95 987 3602.55 987.933 3603.89 989.8L3645.89 1065C3646.15 1065.27 3646.55 1065.4 3647.09 1065.4C3647.62 1065.4 3648.02 1065.27 3648.29 1065L3689.89 989.8ZM3846 1266.6C3843.33 1266.6 3842 1265.27 3842 1262.6V1148.2L3841.6 1146.2L3786 991.4L3785.6 989.8C3785.6 987.933 3786.8 987 3789.2 987H3821.2C3823.6 987 3825.2 988.067 3826 990.2L3860 1100.6C3860.26 1101.13 3860.66 1101.4 3861.2 1101.4C3861.73 1101.4 3862.13 1101.13 3862.4 1100.6L3896.4 990.2C3897.2 988.067 3898.8 987 3901.2 987H3933.2C3936.13 987 3937.2 988.467 3936.4 991.4L3880.8 1146.2L3880.4 1148.2V1262.6C3880.4 1265.27 3879.06 1266.6 3876.4 1266.6H3846Z" fill="#CEFBFD"/>
<line x1="1209.89" y1="940" x2="2551.11" y2="940" stroke="#CEFBFD" stroke-width="20" stroke-linecap="round"/>
<defs>
<filter id="filter0_d_5752_8066" x="517.8" y="368.4" width="3401.28" height="507.2" filterUnits="userSpaceOnUse" color-interpolation-filters="sRGB">
<feFlood flood-opacity="0" result="BackgroundImageFix"/>
<feColorMatrix in="SourceAlpha" type="matrix" values="0 0 0 0 0 0 0 0 0 0 0 0 0 0 0 0 0 0 127 0" result="hardAlpha"/>
<feOffset dx="1" dy="3"/>
<feGaussianBlur stdDeviation="1.5"/>
<feComposite in2="hardAlpha" operator="out"/>
<feColorMatrix type="matrix" values="0 0 0 0 0 0 0 0 0 0 0 0 0 0 0 0 0 0 0.2 0"/>
<feBlend mode="normal" in2="BackgroundImageFix" result="effect1_dropShadow_5752_8066"/>
<feBlend mode="normal" in="SourceGraphic" in2="effect1_dropShadow_5752_8066" result="shape"/>
</filter>
</defs>
</svg>
