<svg width="20" height="26" viewBox="0 0 20 26" fill="none" xmlns="http://www.w3.org/2000/svg">
<path d="M18.0044 0.369568H1.99617C1.1142 0.369568 0.399231 1.03139 0.399231 1.84778V23.3805C0.399231 24.1969 1.1142 24.8587 1.99617 24.8587H18.0044C18.8863 24.8587 19.6013 24.1969 19.6013 23.3805V1.84778C19.6013 1.03139 18.8863 0.369568 18.0044 0.369568Z" fill="#FFF8CC"/>
<path d="M8.80335 11.026H3.93909C3.78875 11.026 3.63988 10.9986 3.50099 10.9453C3.36211 10.892 3.23592 10.814 3.12964 10.7155C3.02336 10.6171 2.93907 10.5003 2.88158 10.3717C2.8241 10.2431 2.79455 10.1053 2.79462 9.96611V9.6887C2.79447 9.23113 2.96683 8.78785 3.28197 8.43533C3.59712 8.0828 4.03529 7.84313 4.5209 7.75766L6.37122 7.43097L8.22153 7.75766C8.70695 7.84334 9.14487 8.08309 9.45981 8.4356C9.77474 8.7881 9.94695 9.23127 9.94675 9.6887V9.96611C9.94689 10.247 9.82652 10.5164 9.61211 10.7152C9.3977 10.9139 9.10679 11.0257 8.80335 11.026Z" fill="#FF6666"/>
<path d="M8.22155 7.75766L6.37123 7.43097L5.88364 7.5172L7.24689 7.75766C7.7325 7.84313 8.17067 8.0828 8.48581 8.43533C8.80096 8.78785 8.97332 9.23113 8.97317 9.6887V9.96611C8.97317 10.2471 8.85261 10.5166 8.638 10.7154C8.42338 10.9141 8.13228 11.0259 7.8287 11.026H8.80336C9.1068 11.0257 9.39771 10.9139 9.61213 10.7152C9.82654 10.5164 9.94691 10.247 9.94677 9.96611V9.6887C9.94697 9.23127 9.77475 8.7881 9.45982 8.4356C9.14489 8.08309 8.70697 7.84334 8.22155 7.75766Z" fill="#FF4E4E"/>
<path d="M5.58768 7.12793H7.1548V7.85324C7.1548 8.04561 7.07225 8.23009 6.9253 8.36611C6.77836 8.50213 6.57905 8.57855 6.37124 8.57855C6.16343 8.57855 5.96412 8.50213 5.81718 8.36611C5.67023 8.23009 5.58768 8.04561 5.58768 7.85324V7.12793Z" fill="#FFCD85"/>
<path d="M5.58768 7.12793H7.1548V7.85324C7.1548 8.04561 7.07225 8.23009 6.9253 8.36611C6.77836 8.50213 6.57905 8.57855 6.37124 8.57855C6.16343 8.57855 5.96412 8.50213 5.81718 8.36611C5.67023 8.23009 5.58768 8.04561 5.58768 7.85324V7.12793Z" fill="#FFCD85"/>
<path d="M6.52774 7.12793V7.85275C6.52774 7.99386 6.48327 8.1319 6.39978 8.24997C6.31629 8.36803 6.19741 8.46099 6.05771 8.51745C6.15654 8.55757 6.26332 8.57821 6.37124 8.57806C6.57905 8.57806 6.77836 8.50164 6.9253 8.36562C7.07225 8.2296 7.1548 8.04511 7.1548 7.85275V7.12793H6.52774Z" fill="#FFC166"/>
<path d="M7.65038 3.94186L4.4975 4.49176V3.13722C4.4975 2.8332 4.76365 2.508 5.09209 2.508H8.24337V3.39148C8.24337 3.53719 8.18095 3.67696 8.06979 3.78014C7.95862 3.88331 7.8078 3.94147 7.65038 3.94186Z" fill="#595F74"/>
<path d="M7.44491 2.508V3.39148C7.44491 3.53719 7.38248 3.67696 7.27132 3.78014C7.16016 3.88331 7.00933 3.94147 6.85191 3.94186L4.4975 4.35232V4.49176L7.65038 3.94186C7.8078 3.94147 7.95862 3.88331 8.06979 3.78014C8.18095 3.67696 8.24337 3.53719 8.24337 3.39148V2.508H7.44491Z" fill="#4A4F60"/>
<path d="M5.17883 3.9419H7.56359C7.74393 3.94229 7.91674 4.00884 8.04416 4.12697C8.17158 4.2451 8.24321 4.40518 8.24335 4.57211V5.67584C8.24335 6.13584 8.04594 6.57701 7.69455 6.90228C7.34315 7.22755 6.86656 7.41028 6.36962 7.41028C5.87267 7.41028 5.39608 7.22755 5.04468 6.90228C4.69329 6.57701 4.49588 6.13584 4.49588 5.67584V4.57211C4.49595 4.4892 4.51368 4.40712 4.54805 4.33056C4.58242 4.254 4.63277 4.18446 4.6962 4.12593C4.75963 4.06739 4.83491 4.02101 4.91772 3.98943C5.00054 3.95786 5.08927 3.9417 5.17883 3.9419Z" fill="#FFCD85"/>
<path d="M7.56361 3.94189H6.76514C6.94548 3.94229 7.11829 4.00884 7.24571 4.12697C7.37313 4.2451 7.44476 4.40517 7.4449 4.57211V5.67584C7.44478 6.07161 7.29849 6.45544 7.03029 6.76366C6.76209 7.07188 6.38811 7.28595 5.9704 7.37037C6.10158 7.39669 6.2354 7.41007 6.36963 7.41028C6.86658 7.41028 7.34317 7.22755 7.69456 6.90227C8.04596 6.577 8.24337 6.13584 8.24337 5.67584V4.57211C8.24323 4.40517 8.1716 4.2451 8.04418 4.12697C7.91676 4.00884 7.74394 3.94229 7.56361 3.94189Z" fill="#FFC166"/>
<path d="M3.19387 12.9837C3.11491 12.9837 3.03772 13.0053 2.97207 13.0459C2.90641 13.0865 2.85524 13.1443 2.82502 13.2118C2.79481 13.2793 2.7869 13.3536 2.80231 13.4253C2.81771 13.497 2.85573 13.5628 2.91157 13.6145C2.9674 13.6662 3.03854 13.7014 3.11598 13.7157C3.19343 13.7299 3.2737 13.7226 3.34665 13.6946C3.4196 13.6667 3.48195 13.6193 3.52582 13.5585C3.56969 13.4978 3.5931 13.4263 3.5931 13.3532C3.5931 13.2552 3.55104 13.1612 3.47617 13.0919C3.4013 13.0226 3.29975 12.9837 3.19387 12.9837ZM3.19387 19.6356C3.11491 19.6356 3.03772 19.6573 2.97207 19.6979C2.90641 19.7385 2.85524 19.7962 2.82502 19.8638C2.79481 19.9313 2.7869 20.0056 2.80231 20.0773C2.81771 20.149 2.85573 20.2148 2.91157 20.2665C2.9674 20.3182 3.03854 20.3534 3.11598 20.3676C3.19343 20.3819 3.2737 20.3746 3.34665 20.3466C3.4196 20.3186 3.48195 20.2713 3.52582 20.2105C3.56969 20.1497 3.5931 20.0783 3.5931 20.0052C3.5931 19.9072 3.55104 19.8132 3.47617 19.7439C3.4013 19.6746 3.29975 19.6356 3.19387 19.6356ZM3.19387 15.201C3.11491 15.201 3.03772 15.2227 2.97207 15.2633C2.90641 15.3039 2.85524 15.3616 2.82502 15.4291C2.79481 15.4966 2.7869 15.5709 2.80231 15.6426C2.81771 15.7143 2.85573 15.7802 2.91157 15.8318C2.9674 15.8835 3.03854 15.9187 3.11598 15.933C3.19343 15.9472 3.2737 15.9399 3.34665 15.912C3.4196 15.884 3.48195 15.8366 3.52582 15.7758C3.56969 15.7151 3.5931 15.6436 3.5931 15.5705C3.5931 15.4725 3.55104 15.3785 3.47617 15.3092C3.4013 15.2399 3.29975 15.201 3.19387 15.201ZM3.19387 21.8529C3.11491 21.8529 3.03772 21.8746 2.97207 21.9152C2.90641 21.9558 2.85524 22.0136 2.82502 22.0811C2.79481 22.1486 2.7869 22.2229 2.80231 22.2946C2.81771 22.3663 2.85573 22.4321 2.91157 22.4838C2.9674 22.5355 3.03854 22.5707 3.11598 22.585C3.19343 22.5992 3.2737 22.5919 3.34665 22.5639C3.4196 22.536 3.48195 22.4886 3.52582 22.4278C3.56969 22.367 3.5931 22.2956 3.5931 22.2225C3.5931 22.1245 3.55104 22.0305 3.47617 21.9612C3.4013 21.8919 3.29975 21.8529 3.19387 21.8529ZM10.3471 9.96613V9.68872C10.3466 9.14531 10.1417 8.61901 9.7675 8.20032C9.39329 7.78163 8.87318 7.4967 8.29661 7.39453L7.80422 7.3078C8.06677 7.1109 8.27849 6.86219 8.42391 6.57984C8.56933 6.29749 8.64477 5.98865 8.64474 5.67585V4.57212C8.64464 4.35385 8.56681 4.1417 8.4233 3.96852C8.5667 3.80553 8.64492 3.60172 8.64474 3.39152V2.50804C8.64474 2.41003 8.60267 2.31603 8.5278 2.24672C8.45293 2.17742 8.35139 2.13848 8.2455 2.13848H5.09209C4.50655 2.13848 4.09827 2.66473 4.09827 3.13727V4.4918C4.09834 4.50482 4.09923 4.51781 4.10093 4.53073C4.10093 4.54453 4.09827 4.55832 4.09827 4.57212V5.67585C4.09823 5.98865 4.17367 6.29749 4.31909 6.57984C4.46451 6.86219 4.67623 7.1109 4.93878 7.3078L4.4464 7.39453C3.86972 7.4966 3.34949 7.78148 2.97517 8.20019C2.60085 8.61889 2.39584 9.14524 2.3954 9.68872V9.96613C2.3954 10.3451 2.55804 10.7086 2.84754 10.9765C3.13704 11.2445 3.52969 11.3951 3.9391 11.3951H8.80337C9.21278 11.3951 9.60543 11.2445 9.89493 10.9765C10.1844 10.7086 10.3471 10.3451 10.3471 9.96613ZM4.89673 3.13727C4.89673 3.01457 5.01331 2.87759 5.09209 2.87759H7.84574V3.39152C7.8456 3.43944 7.82497 3.48536 7.78836 3.51924C7.75176 3.55313 7.70215 3.57222 7.65038 3.57235C7.63637 3.5716 7.62233 3.5716 7.60833 3.57235H5.17886C5.08353 3.57257 4.98866 3.5845 4.89673 3.60783V3.13727ZM4.89673 5.67585V4.57212C4.89687 4.50294 4.92666 4.43665 4.97955 4.38778C5.03245 4.33891 5.10412 4.31146 5.17886 4.31146H7.56361C7.63834 4.31146 7.71002 4.33891 7.76292 4.38778C7.81581 4.43665 7.8456 4.50294 7.84574 4.57212V5.67585C7.84574 6.03784 7.69039 6.38501 7.41387 6.64097C7.13734 6.89694 6.7623 7.04074 6.37123 7.04074C5.98017 7.04074 5.60513 6.89694 5.3286 6.64097C5.05208 6.38501 4.89673 6.03784 4.89673 5.67585ZM6.75556 7.7493V7.85277C6.75556 7.89949 6.74562 7.94575 6.72631 7.98891C6.70699 8.03208 6.67868 8.07129 6.643 8.10433C6.60731 8.13737 6.56494 8.16357 6.51831 8.18145C6.47168 8.19933 6.42171 8.20853 6.37123 8.20853C6.32076 8.20853 6.27079 8.19933 6.22416 8.18145C6.17753 8.16357 6.13516 8.13737 6.09947 8.10433C6.06378 8.07129 6.03548 8.03208 6.01616 7.98891C5.99685 7.94575 5.98691 7.89949 5.98691 7.85277V7.7493C6.24124 7.79003 6.50123 7.79003 6.75556 7.7493ZM3.19387 9.96662V9.68921C3.19423 9.31776 3.33434 8.95803 3.59011 8.67182C3.84588 8.38561 4.20135 8.19078 4.59544 8.12082L5.20121 8.01439C5.24121 8.27553 5.3817 8.51453 5.59686 8.68744C5.81201 8.86036 6.08737 8.95557 6.3723 8.95557C6.65723 8.95557 6.93259 8.86036 7.14774 8.68744C7.3629 8.51453 7.50339 8.27553 7.54338 8.01439L8.14915 8.12082C8.54325 8.19078 8.89872 8.38561 9.15449 8.67182C9.41026 8.95803 9.55037 9.31776 9.55073 9.68921V9.96662C9.55073 10.1496 9.47221 10.325 9.33246 10.4544C9.1927 10.5838 9.00314 10.6565 8.80549 10.6565H3.9391C3.84119 10.6565 3.74424 10.6386 3.65379 10.6039C3.56334 10.5692 3.48116 10.5183 3.41195 10.4542C3.34275 10.3901 3.28786 10.314 3.25044 10.2303C3.21302 10.1465 3.1938 10.0568 3.19387 9.96613V9.96662ZM3.19387 17.4188C3.11491 17.4188 3.03772 17.4405 2.97207 17.4811C2.90641 17.5217 2.85524 17.5794 2.82502 17.6469C2.79481 17.7145 2.7869 17.7888 2.80231 17.8604C2.81771 17.9321 2.85573 17.998 2.91157 18.0497C2.9674 18.1013 3.03854 18.1365 3.11598 18.1508C3.19343 18.1651 3.2737 18.1577 3.34665 18.1298C3.4196 18.1018 3.48195 18.0544 3.52582 17.9937C3.56969 17.9329 3.5931 17.8614 3.5931 17.7883C3.59317 17.7398 3.5829 17.6917 3.56287 17.6468C3.54283 17.6019 3.51344 17.5611 3.47636 17.5267C3.43928 17.4923 3.39524 17.4651 3.34677 17.4465C3.2983 17.4279 3.24634 17.4183 3.19387 17.4183V17.4188ZM17.2054 10.6565H11.9004C11.7945 10.6565 11.6929 10.6954 11.6181 10.7647C11.5432 10.834 11.5011 10.928 11.5011 11.026C11.5011 11.124 11.5432 11.218 11.6181 11.2873C11.6929 11.3566 11.7945 11.3956 11.9004 11.3956H17.2054C17.3112 11.3956 17.4128 11.3566 17.4877 11.2873C17.5625 11.218 17.6046 11.124 17.6046 11.026C17.6046 10.928 17.5625 10.834 17.4877 10.7647C17.4128 10.6954 17.3112 10.6565 17.2054 10.6565ZM17.2054 9.17824H11.9004C11.7945 9.17824 11.6929 9.21717 11.6181 9.28648C11.5432 9.35578 11.5011 9.44978 11.5011 9.54779C11.5011 9.6458 11.5432 9.7398 11.6181 9.80911C11.6929 9.87841 11.7945 9.91735 11.9004 9.91735H17.2054C17.3112 9.91735 17.4128 9.87841 17.4877 9.80911C17.5625 9.7398 17.6046 9.6458 17.6046 9.54779C17.6046 9.44978 17.5625 9.35578 17.4877 9.28648C17.4128 9.21717 17.3112 9.17824 17.2054 9.17824ZM17.2054 2.21732H11.9004C11.7945 2.21732 11.6929 2.25626 11.6181 2.32556C11.5432 2.39487 11.5011 2.48886 11.5011 2.58688C11.5011 2.68489 11.5432 2.77889 11.6181 2.84819C11.6929 2.9175 11.7945 2.95643 11.9004 2.95643H17.2054C17.3112 2.95643 17.4128 2.9175 17.4877 2.84819C17.5625 2.77889 17.6046 2.68489 17.6046 2.58688C17.6046 2.48886 17.5625 2.39487 17.4877 2.32556C17.4128 2.25626 17.3112 2.21732 17.2054 2.21732ZM11.9004 4.43465H14.81C14.9158 4.43465 15.0174 4.39571 15.0923 4.32641C15.1671 4.2571 15.2092 4.1631 15.2092 4.06509C15.2092 3.96708 15.1671 3.87308 15.0923 3.80378C15.0174 3.73447 14.9158 3.69554 14.81 3.69554H11.9004C11.7945 3.69554 11.6929 3.73447 11.6181 3.80378C11.5432 3.87308 11.5011 3.96708 11.5011 4.06509C11.5011 4.1631 11.5432 4.2571 11.6181 4.32641C11.6929 4.39571 11.7945 4.43465 11.9004 4.43465ZM18.0038 0H1.99617C1.46692 0.000521724 0.959519 0.195364 0.585287 0.541775C0.211055 0.888186 0.000563625 1.35787 0 1.84777V23.3804C0.000563625 23.8703 0.211055 24.34 0.585287 24.6864C0.959519 25.0328 1.46692 25.2277 1.99617 25.2282H18.0038C18.5331 25.2277 19.0405 25.0328 19.4147 24.6864C19.7889 24.34 19.9994 23.8703 20 23.3804V1.84777C19.9994 1.35787 19.7889 0.888186 19.4147 0.541775C19.0405 0.195364 18.5331 0.000521724 18.0038 0V0ZM19.2015 23.3804C19.2013 23.6744 19.075 23.9562 18.8504 24.1641C18.6259 24.3719 18.3214 24.4888 18.0038 24.4891H1.99617C1.6786 24.4888 1.37413 24.3719 1.14958 24.1641C0.925025 23.9562 0.798749 23.6744 0.798467 23.3804V1.84777C0.798749 1.55381 0.925025 1.27197 1.14958 1.06412C1.37413 0.856257 1.6786 0.739369 1.99617 0.739108H18.0038C18.3214 0.739369 18.6259 0.856257 18.8504 1.06412C19.075 1.27197 19.2013 1.55381 19.2015 1.84777V23.3804ZM17.2054 19.6356H5.30076C5.19487 19.6356 5.09333 19.6746 5.01846 19.7439C4.94358 19.8132 4.90152 19.9072 4.90152 20.0052C4.90152 20.1032 4.94358 20.1972 5.01846 20.2665C5.09333 20.3358 5.19487 20.3747 5.30076 20.3747H17.2054C17.3112 20.3747 17.4128 20.3358 17.4877 20.2665C17.5625 20.1972 17.6046 20.1032 17.6046 20.0052C17.6046 19.9072 17.5625 19.8132 17.4877 19.7439C17.4128 19.6746 17.3112 19.6356 17.2054 19.6356ZM17.2054 21.8529H5.30076C5.19487 21.8529 5.09333 21.8919 5.01846 21.9612C4.94358 22.0305 4.90152 22.1245 4.90152 22.2225C4.90152 22.3205 4.94358 22.4145 5.01846 22.4838C5.09333 22.5531 5.19487 22.5921 5.30076 22.5921H17.2054C17.3112 22.5921 17.4128 22.5531 17.4877 22.4838C17.5625 22.4145 17.6046 22.3205 17.6046 22.2225C17.6046 22.1245 17.5625 22.0305 17.4877 21.9612C17.4128 21.8919 17.3112 21.8529 17.2054 21.8529ZM17.2054 12.9837H5.30076C5.19487 12.9837 5.09333 13.0226 5.01846 13.0919C4.94358 13.1612 4.90152 13.2552 4.90152 13.3532C4.90152 13.4512 4.94358 13.5452 5.01846 13.6145C5.09333 13.6838 5.19487 13.7228 5.30076 13.7228H17.2054C17.3112 13.7228 17.4128 13.6838 17.4877 13.6145C17.5625 13.5452 17.6046 13.4512 17.6046 13.3532C17.6046 13.2552 17.5625 13.1612 17.4877 13.0919C17.4128 13.0226 17.3112 12.9837 17.2054 12.9837ZM17.2054 17.4183H5.30076C5.19487 17.4183 5.09333 17.4572 5.01846 17.5265C4.94358 17.5958 4.90152 17.6898 4.90152 17.7879C4.90152 17.8859 4.94358 17.9799 5.01846 18.0492C5.09333 18.1185 5.19487 18.1574 5.30076 18.1574H17.2054C17.3112 18.1574 17.4128 18.1185 17.4877 18.0492C17.5625 17.9799 17.6046 17.8859 17.6046 17.7879C17.6046 17.6898 17.5625 17.5958 17.4877 17.5265C17.4128 17.4572 17.3112 17.4183 17.2054 17.4183ZM17.2054 15.201H5.30076C5.19487 15.201 5.09333 15.2399 5.01846 15.3092C4.94358 15.3785 4.90152 15.4725 4.90152 15.5705C4.90152 15.6685 4.94358 15.7625 5.01846 15.8318C5.09333 15.9012 5.19487 15.9401 5.30076 15.9401H17.2054C17.3112 15.9401 17.4128 15.9012 17.4877 15.8318C17.5625 15.7625 17.6046 15.6685 17.6046 15.5705C17.6046 15.4725 17.5625 15.3785 17.4877 15.3092C17.4128 15.2399 17.3112 15.201 17.2054 15.201Z" fill="#272A33"/>
</svg>
